<svg width="234" height="74" viewBox="0 0 234 74" fill="none" xmlns="http://www.w3.org/2000/svg">
<rect x="0.291016" y="0.345703" width="233.709" height="73.4513" rx="20.2099" fill="black"/>
<path d="M84.5952 30.1514C87.5545 30.1514 89.2239 28.3113 89.2239 25.2761C89.2239 22.2599 87.5545 20.4388 84.728 20.4388H81.598V30.1514H84.5952ZM82.7741 29.108V21.4821H84.6522C86.9285 21.4821 88.0857 22.9238 88.0857 25.2761C88.0857 27.6473 86.9285 29.108 84.5194 29.108H82.7741ZM94.0043 30.3031C95.9772 30.3031 97.3051 28.8045 97.3051 26.5471C97.3051 24.2707 95.9772 22.7721 94.0043 22.7721C92.0314 22.7721 90.7035 24.2707 90.7035 26.5471C90.7035 28.8045 92.0314 30.3031 94.0043 30.3031ZM94.0043 29.2977C92.5057 29.2977 91.8228 28.0078 91.8228 26.5471C91.8228 25.0864 92.5057 23.7775 94.0043 23.7775C95.5029 23.7775 96.1858 25.0864 96.1858 26.5471C96.1858 28.0078 95.5029 29.2977 94.0043 29.2977ZM100.416 30.1514H101.516L103.11 24.5553H103.224L104.817 30.1514H105.917L108.137 22.8669H106.961L105.386 28.4251H105.31L103.774 22.8669H102.579L101.023 28.4441H100.947L99.3728 22.8669H98.1966L100.416 30.1514ZM110.736 25.7693C110.736 24.4983 111.523 23.7775 112.595 23.7775C113.633 23.7775 114.264 24.4557 114.264 25.5986V30.1514H115.383V25.5227C115.383 23.6637 114.392 22.7721 112.917 22.7721C111.817 22.7721 111.134 23.2653 110.793 24.0051H110.698V22.8669H109.617V30.1514H110.736V25.7693ZM118.548 20.4388H117.429V30.1514H118.548V20.4388ZM123.557 30.3031C125.53 30.3031 126.858 28.8045 126.858 26.5471C126.858 24.2707 125.53 22.7721 123.557 22.7721C121.584 22.7721 120.256 24.2707 120.256 26.5471C120.256 28.8045 121.584 30.3031 123.557 30.3031ZM123.557 29.2977C122.058 29.2977 121.375 28.0078 121.375 26.5471C121.375 25.0864 122.058 23.7775 123.557 23.7775C125.056 23.7775 125.739 25.0864 125.739 26.5471C125.739 28.0078 125.056 29.2977 123.557 29.2977ZM130.71 30.3221C131.981 30.3221 132.645 29.6392 132.872 29.1649H132.929V30.1514H134.049V25.352C134.049 23.0377 132.284 22.7721 131.355 22.7721C130.255 22.7721 129.003 23.1515 128.433 24.4794L129.496 24.8588C129.742 24.3276 130.326 23.7585 131.393 23.7585C132.422 23.7585 132.929 24.3039 132.929 25.2382V25.2761C132.929 25.8168 132.379 25.7693 131.051 25.9401C129.7 26.1155 128.225 26.4143 128.225 28.0837C128.225 29.5064 129.325 30.3221 130.71 30.3221ZM130.881 29.3167C129.989 29.3167 129.344 28.9183 129.344 28.1406C129.344 27.2869 130.122 27.0213 130.994 26.9075C131.469 26.8506 132.74 26.7178 132.929 26.4902V27.5146C132.929 28.4251 132.208 29.3167 130.881 29.3167ZM138.842 30.3031C140.246 30.3031 140.72 29.4305 140.967 29.0321H141.099V30.1514H142.181V20.4388H141.061V24.0241H140.967C140.72 23.6447 140.284 22.7721 138.861 22.7721C137.021 22.7721 135.75 24.2328 135.75 26.5281C135.75 28.8424 137.021 30.3031 138.842 30.3031ZM138.994 29.2977C137.59 29.2977 136.869 28.0647 136.869 26.5092C136.869 24.9726 137.571 23.7775 138.994 23.7775C140.36 23.7775 141.08 24.8777 141.08 26.5092C141.08 28.1595 140.341 29.2977 138.994 29.2977ZM151.101 30.3031C153.074 30.3031 154.402 28.8045 154.402 26.5471C154.402 24.2707 153.074 22.7721 151.101 22.7721C149.128 22.7721 147.8 24.2707 147.8 26.5471C147.8 28.8045 149.128 30.3031 151.101 30.3031ZM151.101 29.2977C149.603 29.2977 148.92 28.0078 148.92 26.5471C148.92 25.0864 149.603 23.7775 151.101 23.7775C152.6 23.7775 153.283 25.0864 153.283 26.5471C153.283 28.0078 152.6 29.2977 151.101 29.2977ZM157.23 25.7693C157.23 24.4983 158.017 23.7775 159.089 23.7775C160.127 23.7775 160.758 24.4557 160.758 25.5986V30.1514H161.877V25.5227C161.877 23.6637 160.886 22.7721 159.411 22.7721C158.311 22.7721 157.628 23.2653 157.287 24.0051H157.192V22.8669H156.11V30.1514H157.23V25.7693ZM170.847 22.8669H169.291V21.1217H168.172V22.8669H167.071V23.8154H168.172V28.3682C168.172 29.6392 169.196 30.2462 170.145 30.2462C170.562 30.2462 170.828 30.1703 170.979 30.1134L170.752 29.108C170.657 29.127 170.505 29.1649 170.258 29.1649C169.765 29.1649 169.291 29.0132 169.291 28.0647V23.8154H170.847V22.8669ZM173.806 25.7693C173.806 24.4983 174.617 23.7775 175.722 23.7775C176.775 23.7775 177.41 24.4414 177.41 25.5986V30.1514H178.529V25.5227C178.529 23.6494 177.533 22.7721 176.044 22.7721C174.897 22.7721 174.242 23.2511 173.901 24.0051H173.806V20.4388H172.687V30.1514H173.806V25.7693ZM183.631 30.3031C185.111 30.3031 186.192 29.5633 186.533 28.463L185.452 28.1595C185.168 28.9183 184.508 29.2977 183.631 29.2977C182.317 29.2977 181.412 28.4488 181.359 26.8885H186.647V26.4143C186.647 23.7016 185.035 22.7721 183.517 22.7721C181.544 22.7721 180.235 24.3276 180.235 26.5661C180.235 28.8045 181.525 30.3031 183.631 30.3031ZM181.359 25.9211C181.435 24.7876 182.237 23.7775 183.517 23.7775C184.731 23.7775 185.509 24.688 185.509 25.9211H181.359ZM84.619 53.1514L85.8204 49.4601H91.6615L92.8629 53.1514H96.5305L90.9502 36.9637H86.5397L80.9515 53.1514H84.619ZM86.6898 46.7886L88.6817 40.6629H88.8081L90.8 46.7886H86.6898ZM98.4156 57.7041H101.783V51.207H101.885C102.352 52.2187 103.371 53.349 105.332 53.349C108.098 53.349 110.256 51.1595 110.256 47.0968C110.256 42.9234 108.003 40.8526 105.34 40.8526C103.308 40.8526 102.336 42.0619 101.885 43.0499H101.735V41.0107H98.4156V57.7041ZM101.712 47.081C101.712 44.9153 102.628 43.5321 104.265 43.5321C105.932 43.5321 106.818 44.9785 106.818 47.081C106.818 49.1993 105.917 50.6695 104.265 50.6695C102.644 50.6695 101.712 49.2467 101.712 47.081ZM112.501 57.7041H115.868V51.207H115.971C116.437 52.2187 117.457 53.349 119.417 53.349C122.183 53.349 124.341 51.1595 124.341 47.0968C124.341 42.9234 122.088 40.8526 119.425 40.8526C117.393 40.8526 116.421 42.0619 115.971 43.0499H115.82V41.0107H112.501V57.7041ZM115.797 47.081C115.797 44.9153 116.714 43.5321 118.35 43.5321C120.018 43.5321 120.903 44.9785 120.903 47.081C120.903 49.1993 120.002 50.6695 118.35 50.6695C116.729 50.6695 115.797 49.2467 115.797 47.081ZM140.582 41.6193H143.862C143.815 38.7343 141.444 36.7424 137.839 36.7424C134.29 36.7424 131.69 38.7026 131.706 41.643C131.698 44.03 133.381 45.3974 136.116 46.0535L137.879 46.4961C139.641 46.9229 140.622 47.4288 140.629 48.5196C140.622 49.7052 139.499 50.5114 137.76 50.5114C135.982 50.5114 134.701 49.6894 134.591 48.069H131.279C131.366 51.5705 133.871 53.3806 137.8 53.3806C141.752 53.3806 144.076 51.4915 144.084 48.5275C144.076 45.8322 142.044 44.4015 139.23 43.7692L137.776 43.4214C136.369 43.0973 135.191 42.5757 135.215 41.4138C135.215 40.3704 136.14 39.6037 137.816 39.6037C139.452 39.6037 140.456 40.3467 140.582 41.6193ZM152.78 41.0107H150.496V38.1019H147.129V41.0107H145.469V43.54H147.129V49.8633C147.113 52.2424 148.733 53.4201 151.176 53.3174C152.045 53.2857 152.662 53.1118 153.001 53.0012L152.472 50.4956C152.306 50.5272 151.95 50.6062 151.634 50.6062C150.962 50.6062 150.496 50.3533 150.496 49.4206V43.54H152.78V41.0107ZM160.328 53.3885C164.012 53.3885 166.304 50.8671 166.304 47.1284C166.304 43.3661 164.012 40.8526 160.328 40.8526C156.645 40.8526 154.353 43.3661 154.353 47.1284C154.353 50.8671 156.645 53.3885 160.328 53.3885ZM160.344 50.7801C158.645 50.7801 157.775 49.223 157.775 47.1047C157.775 44.9864 158.645 43.4214 160.344 43.4214C162.012 43.4214 162.882 44.9864 162.882 47.1047C162.882 49.223 162.012 50.7801 160.344 50.7801ZM168.493 53.1514H171.861V46.2827C171.861 44.7888 172.951 43.7613 174.437 43.7613C174.904 43.7613 175.544 43.8403 175.86 43.9431V40.9553C175.56 40.8842 175.141 40.8368 174.801 40.8368C173.441 40.8368 172.327 41.6272 171.884 43.129H171.758V41.0107H168.493V53.1514ZM182.569 53.3885C185.572 53.3885 187.596 51.9262 188.07 49.6736L184.956 49.4681C184.616 50.3928 183.746 50.875 182.624 50.875C180.94 50.875 179.873 49.7605 179.873 47.9505V47.9426H188.141V47.0178C188.141 42.8918 185.643 40.8526 182.434 40.8526C178.862 40.8526 176.546 43.3898 176.546 47.1363C176.546 50.9856 178.83 53.3885 182.569 53.3885ZM179.873 45.8559C179.945 44.4727 180.996 43.3661 182.49 43.3661C183.952 43.3661 184.964 44.4094 184.972 45.8559H179.873Z" fill="white"/>
<path d="M45.8084 21.1015C46.5096 20.2933 47.0443 19.3545 47.3817 18.3392C47.7191 17.3238 47.8526 16.2517 47.7745 15.1846C45.6218 15.3583 43.6234 16.3708 42.21 18.0039C41.5332 18.7866 41.0203 19.6972 40.7017 20.6816C40.3831 21.6661 40.2653 22.7045 40.3552 23.7353C41.4053 23.7441 42.4433 23.5111 43.389 23.0544C44.3346 22.5976 45.1624 21.9294 45.8084 21.1015ZM50.4826 34.9014C50.495 33.4801 50.8694 32.0855 51.5704 30.849C52.2714 29.6125 53.2759 28.5751 54.489 27.8345C53.7234 26.7313 52.7113 25.8217 51.5329 25.1778C50.3545 24.5339 49.0423 24.1734 47.7003 24.1249C44.8068 23.8281 42.1358 25.8128 40.5963 25.8128C39.0568 25.8128 36.8867 24.162 34.4754 24.1991C32.899 24.251 31.363 24.7106 30.0172 25.533C28.6714 26.3555 27.5617 27.5127 26.7964 28.8918C23.5319 34.5676 25.9617 43.007 29.2262 47.5885C30.7101 49.8328 32.5649 52.3739 35.0133 52.2812C37.4617 52.1885 38.2592 50.7602 41.0971 50.7602C43.935 50.7602 44.8068 52.2812 47.2181 52.2256C49.6294 52.1699 51.3358 49.9256 52.8939 47.6812C53.9976 46.0518 54.8597 44.2713 55.4535 42.395C53.9835 41.768 52.7294 40.7243 51.846 39.3926C50.9625 38.0608 50.4886 36.4995 50.4826 34.9014Z" fill="white"/>
</svg>
