<svg width="235" height="74" viewBox="0 0 235 74" fill="none" xmlns="http://www.w3.org/2000/svg">
<rect x="0.708984" width="233.709" height="73.4513" rx="20.2099" fill="white"/>
<path d="M85.0132 29.8057C87.9725 29.8057 89.6419 27.9656 89.6419 24.9304C89.6419 21.9142 87.9725 20.0931 85.146 20.0931H82.016V29.8057H85.0132ZM83.1921 28.7623V21.1364H85.0701C87.3465 21.1364 88.5037 22.5781 88.5037 24.9304C88.5037 27.3016 87.3465 28.7623 84.9373 28.7623H83.1921ZM94.4223 29.9574C96.3951 29.9574 97.723 28.4588 97.723 26.2014C97.723 23.925 96.3951 22.4264 94.4223 22.4264C92.4494 22.4264 91.1215 23.925 91.1215 26.2014C91.1215 28.4588 92.4494 29.9574 94.4223 29.9574ZM94.4223 28.952C92.9237 28.952 92.2407 27.6621 92.2407 26.2014C92.2407 24.7407 92.9237 23.4318 94.4223 23.4318C95.9209 23.4318 96.6038 24.7407 96.6038 26.2014C96.6038 27.6621 95.9209 28.952 94.4223 28.952ZM100.834 29.8057H101.934L103.528 24.2096H103.642L105.235 29.8057H106.335L108.555 22.5212H107.379L105.804 28.0794H105.728L104.192 22.5212H102.997L101.441 28.0984H101.365L99.7907 22.5212H98.6146L100.834 29.8057ZM111.154 25.4236C111.154 24.1526 111.941 23.4318 113.013 23.4318C114.051 23.4318 114.682 24.11 114.682 25.2529V29.8057H115.801V25.177C115.801 23.318 114.81 22.4264 113.335 22.4264C112.235 22.4264 111.552 22.9196 111.211 23.6594H111.116V22.5212H110.034V29.8057H111.154V25.4236ZM118.966 20.0931H117.847V29.8057H118.966V20.0931ZM123.975 29.9574C125.948 29.9574 127.276 28.4588 127.276 26.2014C127.276 23.925 125.948 22.4264 123.975 22.4264C122.002 22.4264 120.674 23.925 120.674 26.2014C120.674 28.4588 122.002 29.9574 123.975 29.9574ZM123.975 28.952C122.476 28.952 121.793 27.6621 121.793 26.2014C121.793 24.7407 122.476 23.4318 123.975 23.4318C125.474 23.4318 126.156 24.7407 126.156 26.2014C126.156 27.6621 125.474 28.952 123.975 28.952ZM131.128 29.9764C132.399 29.9764 133.063 29.2935 133.29 28.8192H133.347V29.8057H134.466V25.0063C134.466 22.692 132.702 22.4264 131.773 22.4264C130.673 22.4264 129.42 22.8058 128.851 24.1337L129.914 24.5131C130.16 23.9819 130.744 23.4128 131.811 23.4128C132.84 23.4128 133.347 23.9582 133.347 24.8925V24.9304C133.347 25.471 132.797 25.4236 131.469 25.5944C130.118 25.7698 128.643 26.0686 128.643 27.7379C128.643 29.1607 129.743 29.9764 131.128 29.9764ZM131.299 28.971C130.407 28.971 129.762 28.5726 129.762 27.7949C129.762 26.9412 130.54 26.6756 131.412 26.5618C131.887 26.5049 133.158 26.3721 133.347 26.1445V27.1689C133.347 28.0794 132.626 28.971 131.299 28.971ZM139.26 29.9574C140.664 29.9574 141.138 29.0848 141.385 28.6864H141.517V29.8057H142.599V20.0931H141.479V23.6784H141.385C141.138 23.299 140.702 22.4264 139.279 22.4264C137.439 22.4264 136.168 23.8871 136.168 26.1824C136.168 28.4967 137.439 29.9574 139.26 29.9574ZM139.412 28.952C138.008 28.952 137.287 27.719 137.287 26.1634C137.287 24.6269 137.989 23.4318 139.412 23.4318C140.778 23.4318 141.498 24.532 141.498 26.1634C141.498 27.8138 140.759 28.952 139.412 28.952ZM151.519 29.9574C153.492 29.9574 154.82 28.4588 154.82 26.2014C154.82 23.925 153.492 22.4264 151.519 22.4264C149.546 22.4264 148.218 23.925 148.218 26.2014C148.218 28.4588 149.546 29.9574 151.519 29.9574ZM151.519 28.952C150.021 28.952 149.338 27.6621 149.338 26.2014C149.338 24.7407 150.021 23.4318 151.519 23.4318C153.018 23.4318 153.701 24.7407 153.701 26.2014C153.701 27.6621 153.018 28.952 151.519 28.952ZM157.648 25.4236C157.648 24.1526 158.435 23.4318 159.507 23.4318C160.545 23.4318 161.176 24.11 161.176 25.2529V29.8057H162.295V25.177C162.295 23.318 161.304 22.4264 159.829 22.4264C158.729 22.4264 158.046 22.9196 157.705 23.6594H157.61V22.5212H156.528V29.8057H157.648V25.4236ZM171.264 22.5212H169.709V20.776H168.59V22.5212H167.489V23.4697H168.59V28.0225C168.59 29.2935 169.614 29.9005 170.563 29.9005C170.98 29.9005 171.245 29.8246 171.397 29.7677L171.17 28.7623C171.075 28.7813 170.923 28.8192 170.676 28.8192C170.183 28.8192 169.709 28.6675 169.709 27.719V23.4697H171.264V22.5212ZM174.224 25.4236C174.224 24.1526 175.035 23.4318 176.14 23.4318C177.193 23.4318 177.828 24.0957 177.828 25.2529V29.8057H178.947V25.177C178.947 23.3037 177.951 22.4264 176.462 22.4264C175.315 22.4264 174.66 22.9054 174.319 23.6594H174.224V20.0931H173.105V29.8057H174.224V25.4236ZM184.049 29.9574C185.529 29.9574 186.61 29.2176 186.951 28.1173L185.87 27.8138C185.586 28.5726 184.926 28.952 184.049 28.952C182.735 28.952 181.829 28.1031 181.777 26.5428H187.065V26.0686C187.065 23.3559 185.453 22.4264 183.935 22.4264C181.962 22.4264 180.653 23.9819 180.653 26.2204C180.653 28.4588 181.943 29.9574 184.049 29.9574ZM181.777 25.5754C181.853 24.4419 182.655 23.4318 183.935 23.4318C185.149 23.4318 185.927 24.3423 185.927 25.5754H181.777ZM85.0369 52.8057L86.2384 49.1144H92.0795L93.2809 52.8057H96.9484L91.3681 36.618H86.9576L81.3694 52.8057H85.0369ZM87.1078 46.4429L89.0996 40.3172H89.2261L91.2179 46.4429H87.1078ZM98.8336 57.3584H102.201V50.8613H102.303C102.77 51.873 103.789 53.0033 105.75 53.0033C108.516 53.0033 110.674 50.8138 110.674 46.7511C110.674 42.5777 108.421 40.5069 105.758 40.5069C103.726 40.5069 102.754 41.7162 102.303 42.7042H102.153V40.6649H98.8336V57.3584ZM102.13 46.7353C102.13 44.5696 103.046 43.1864 104.683 43.1864C106.35 43.1864 107.236 44.6328 107.236 46.7353C107.236 48.8536 106.335 50.3238 104.683 50.3238C103.062 50.3238 102.13 48.901 102.13 46.7353ZM112.919 57.3584H116.286V50.8613H116.389C116.855 51.873 117.875 53.0033 119.835 53.0033C122.601 53.0033 124.759 50.8138 124.759 46.7511C124.759 42.5777 122.506 40.5069 119.843 40.5069C117.811 40.5069 116.839 41.7162 116.389 42.7042H116.238V40.6649H112.919V57.3584ZM116.215 46.7353C116.215 44.5696 117.132 43.1864 118.768 43.1864C120.435 43.1864 121.321 44.6328 121.321 46.7353C121.321 48.8536 120.42 50.3238 118.768 50.3238C117.147 50.3238 116.215 48.901 116.215 46.7353ZM141 41.2736H144.28C144.233 38.3886 141.862 36.3967 138.257 36.3967C134.708 36.3967 132.108 38.3569 132.124 41.2973C132.116 43.6843 133.799 45.0517 136.534 45.7078L138.297 46.1504C140.059 46.5772 141.04 47.0831 141.047 48.1739C141.04 49.3595 139.917 50.1657 138.178 50.1657C136.4 50.1657 135.119 49.3437 135.009 47.7233H131.697C131.784 51.2248 134.289 53.0349 138.218 53.0349C142.17 53.0349 144.494 51.1458 144.502 48.1818C144.494 45.4865 142.462 44.0558 139.648 43.4235L138.194 43.0757C136.787 42.7516 135.609 42.23 135.633 41.0681C135.633 40.0247 136.558 39.258 138.234 39.258C139.87 39.258 140.874 40.001 141 41.2736ZM153.198 40.6649H150.914V37.7562H147.547V40.6649H145.887V43.1943H147.547V49.5176C147.531 51.8967 149.151 53.0744 151.594 52.9717C152.463 52.94 153.079 52.7661 153.419 52.6555L152.89 50.1499C152.724 50.1815 152.368 50.2605 152.052 50.2605C151.38 50.2605 150.914 50.0076 150.914 49.0749V43.1943H153.198V40.6649ZM160.746 53.0428C164.43 53.0428 166.722 50.5214 166.722 46.7827C166.722 43.0204 164.43 40.5069 160.746 40.5069C157.063 40.5069 154.771 43.0204 154.771 46.7827C154.771 50.5214 157.063 53.0428 160.746 53.0428ZM160.762 50.4344C159.063 50.4344 158.193 48.8773 158.193 46.759C158.193 44.6407 159.063 43.0757 160.762 43.0757C162.43 43.0757 163.299 44.6407 163.299 46.759C163.299 48.8773 162.43 50.4344 160.762 50.4344ZM168.911 52.8057H172.279V45.937C172.279 44.4431 173.369 43.4156 174.855 43.4156C175.322 43.4156 175.962 43.4946 176.278 43.5974V40.6096C175.978 40.5385 175.559 40.4911 175.219 40.4911C173.859 40.4911 172.745 41.2815 172.302 42.7832H172.176V40.6649H168.911V52.8057ZM182.987 53.0428C185.99 53.0428 188.014 51.5805 188.488 49.3279L185.374 49.1223C185.034 50.0471 184.164 50.5293 183.042 50.5293C181.358 50.5293 180.291 49.4148 180.291 47.6048V47.5969H188.559V46.6721C188.559 42.5461 186.061 40.5069 182.852 40.5069C179.28 40.5069 176.964 43.0441 176.964 46.7906C176.964 50.6399 179.248 53.0428 182.987 53.0428ZM180.291 45.5102C180.362 44.1269 181.414 43.0204 182.908 43.0204C184.37 43.0204 185.382 44.0637 185.39 45.5102H180.291Z" fill="black"/>
<path d="M46.2264 20.7555C46.9276 19.9473 47.4623 19.0086 47.7997 17.9932C48.1371 16.9778 48.2706 15.9058 48.1925 14.8386C46.0397 15.0124 44.0414 16.0249 42.628 17.658C41.9512 18.4407 41.4383 19.3512 41.1197 20.3357C40.8011 21.3202 40.6833 22.3586 40.7732 23.3894C41.8233 23.3981 42.8613 23.1651 43.8069 22.7084C44.7526 22.2517 45.5804 21.5835 46.2264 20.7555ZM50.9006 34.5555C50.913 33.1342 51.2874 31.7395 51.9884 30.5031C52.6893 29.2666 53.6938 28.2291 54.907 27.4886C54.1414 26.3854 53.1292 25.4758 51.9508 24.8319C50.7725 24.1879 49.4603 23.8274 48.1183 23.7789C45.2248 23.4821 42.5538 25.4668 41.0143 25.4668C39.4748 25.4668 37.3046 23.816 34.8934 23.8531C33.317 23.905 31.781 24.3646 30.4352 25.1871C29.0894 26.0095 27.9797 27.1667 27.2144 28.5458C23.9499 34.2216 26.3797 42.6611 29.6442 47.2425C31.1281 49.4869 32.9829 52.028 35.4313 51.9353C37.8796 51.8425 38.6772 50.4143 41.5151 50.4143C44.353 50.4143 45.2248 51.9353 47.6361 51.8796C50.0473 51.824 51.7538 49.5796 53.3118 47.3353C54.4155 45.7059 55.2777 43.9253 55.8715 42.049C54.4015 41.4221 53.1474 40.3783 52.2639 39.0466C51.3805 37.7149 50.9065 36.1536 50.9006 34.5555Z" fill="black"/>
</svg>
