<svg width="80" height="80" viewBox="0 0 80 80" fill="none" xmlns="http://www.w3.org/2000/svg">
<path d="M18.0644 49.032C10.9495 49.032 5.16113 54.8204 5.16113 61.9352C5.16113 69.05 10.9495 74.8384 18.0644 74.8384C25.1792 74.8384 30.9676 69.05 30.9676 61.9352C30.9676 54.8204 25.1792 49.032 18.0644 49.032ZM18.0644 72.2578C12.3727 72.2578 7.74178 67.6268 7.74178 61.9352C7.74178 56.2436 12.3727 51.6126 18.0644 51.6126C23.756 51.6126 28.3869 56.2436 28.3869 61.9352C28.3869 67.6268 23.756 72.2578 18.0644 72.2578Z" fill="#03A438"/>
<path d="M16.7748 61.4011L14.5723 63.6037L16.3968 65.4282L19.3555 62.4695V54.1934H16.7748V61.4011Z" fill="#03A438"/>
<path d="M76.129 5.16129H72.2581V3.87097C72.2581 1.73677 70.5213 0 68.3871 0C66.2529 0 64.5161 1.73677 64.5161 3.87097V5.16129H61.9355V3.87097C61.9355 1.73677 60.1987 0 58.0645 0C55.9303 0 54.1935 1.73677 54.1935 3.87097V5.16129H41.2903V3.87097C41.2903 1.73677 39.5535 0 37.4194 0C35.2852 0 33.5484 1.73677 33.5484 3.87097V5.16129H30.9677V3.87097C30.9677 1.73677 29.231 0 27.0968 0C24.9626 0 23.2258 1.73677 23.2258 3.87097V5.16129H19.3548C17.2206 5.16129 15.4839 6.89806 15.4839 9.03226V33.5484H10.3226V41.2903H12.9032V44.6323C5.45161 46.8594 0 53.769 0 61.9355C0 71.8968 8.10323 80 18.0645 80C28.0258 80 36.129 71.8968 36.129 61.9355H33.5484C33.5484 70.4735 26.6026 77.4193 18.0645 77.4193C9.52645 77.4193 2.58065 70.4735 2.58065 61.9355C2.58065 53.3974 9.52645 46.4516 18.0645 46.4516C25.2813 46.4516 31.4787 51.3497 33.1342 58.36L33.369 59.3548H76.129C78.2632 59.3548 80 57.6181 80 55.4839V9.03226C80 6.89806 78.2632 5.16129 76.129 5.16129ZM67.0968 3.87097C67.0968 3.15871 67.6761 2.58065 68.3871 2.58065C69.0981 2.58065 69.6774 3.15871 69.6774 3.87097L69.6787 10.3226H67.0968V3.87097ZM56.7742 3.87097C56.7742 3.15871 57.3535 2.58065 58.0645 2.58065C58.7755 2.58065 59.3548 3.15871 59.3548 3.87097L59.3561 10.3226H56.7742V3.87097ZM36.129 3.87097C36.129 3.15871 36.7084 2.58065 37.4194 2.58065C38.1303 2.58065 38.7097 3.15871 38.7097 3.87097L38.711 10.3226H36.129V3.87097ZM25.8064 3.87097C25.8064 3.15871 26.3858 2.58065 27.0968 2.58065C27.8077 2.58065 28.3871 3.15871 28.3871 3.87097L28.3884 10.3226H25.8064V3.87097ZM12.9032 36.129H23.2258V38.7097H12.9032V36.129ZM20.6452 44.0645C19.8 43.9445 18.9406 43.871 18.0645 43.871C17.1858 43.871 16.329 43.9548 15.4839 44.0774V41.2903H20.6452V44.0645ZM77.4193 55.4839C77.4193 56.1961 76.84 56.7742 76.129 56.7742H35.3819C35.1161 55.8787 34.7819 55.0194 34.3923 54.1935H72.2581V20.6452H23.2258V30.8852H25.8064V23.2258H69.6774V51.6129H32.9084C30.5845 48.2581 27.1729 45.7935 23.2258 44.6271V41.2903H25.8064V33.5484H18.0645V18.0645H77.4193V55.4839ZM77.4193 15.4839H18.0645V9.03226C18.0645 8.32 18.6439 7.74194 19.3548 7.74194H23.2258V10.3226C23.2258 11.7458 24.3832 12.9032 25.8064 12.9032H28.3871C29.8103 12.9032 30.9677 11.7458 30.9677 10.3226V7.74194H33.5484V10.3226C33.5484 11.7458 34.7058 12.9032 36.129 12.9032H38.7097C40.1329 12.9032 41.2903 11.7458 41.2903 10.3226V7.74194H54.1935V10.3226C54.1935 11.7458 55.351 12.9032 56.7742 12.9032H59.3548C60.7781 12.9032 61.9355 11.7458 61.9355 10.3226V7.74194H64.5161V10.3226C64.5161 11.7458 65.6735 12.9032 67.0968 12.9032H69.6774C71.1006 12.9032 72.2581 11.7458 72.2581 10.3226V7.74194H76.129C76.84 7.74194 77.4193 8.32 77.4193 9.03226V15.4839Z" fill="#03A438"/>
<path d="M47.7423 43.8709C46.3191 43.8709 45.1617 42.7135 45.1617 41.2903H42.5811C42.5811 43.689 44.2327 45.6916 46.452 46.2683V49.0322H49.0327V46.2683C51.252 45.6916 52.9036 43.689 52.9036 41.2903C52.9036 38.4438 50.5888 36.129 47.7423 36.129C46.3191 36.129 45.1617 34.9716 45.1617 33.5483C45.1617 32.1251 46.3191 30.9677 47.7423 30.9677C49.1656 30.9677 50.323 32.1251 50.323 33.5483H52.9036C52.9036 31.1496 51.252 29.147 49.0327 28.5703V25.8064H46.452V28.5703C44.2327 29.147 42.5811 31.1496 42.5811 33.5483C42.5811 36.3948 44.8959 38.7096 47.7423 38.7096C49.1656 38.7096 50.323 39.867 50.323 41.2903C50.323 42.7135 49.1656 43.8709 47.7423 43.8709Z" fill="#03A438"/>
</svg>
